# xmcd
#
# Track frame offsets: 
#        150
#        26352
#        51237
#        76197
#        94645
#        119280
#        144045
#        169507
#        200987
#        230702
#        253392
#        276992
#        292522
#
# Disc length: 4190 seconds
#
# Revision: 5
# Processed by: cddbd v1.5.2PL0 Copyright (c) Steve Scherf et al.
# Submitted via: ExactAudioCopy v0.95b4
#
DISCID=b0105c0d
DTITLE=Little Feat - Ain't Had Enough Fun
DYEAR=1995
DGENRE=Rock
TTITLE0=Drivin' Blind
TTITLE1=Blue Jean Blues
TTITLE2=Cadillac Hotel
TTITLE3=Romance Without Finance
TTITLE4=Big Bang Theory
TTITLE5=Cajun Rage
TTITLE6=Heaven's Where You Find It
TTITLE7=Borderline Blues
TTITLE8=All that You Can Stand
TTITLE9=Rock and Roll Everynight
TTITLE10=Shakeytown
TTITLE11=Ain't Had Enough Fun
TTITLE12=That's A Pretty Good Love
EXTD=
EXTT0=
EXTT1=
EXTT2=
EXTT3=
EXTT4=
EXTT5=
EXTT6=
EXTT7=
EXTT8=
EXTT9=
EXTT10=
EXTT11=
EXTT12=
PLAYORDER=
